<svg preserveAspectRatio="none" width="100%" height="100%" overflow="visible" style="display: block;" viewBox="0 0 10 15" fill="none" xmlns="http://www.w3.org/2000/svg">
<g id="elements">
<path id="Vector (Stroke)" opacity="0.4" fill-rule="evenodd" clip-rule="evenodd" d="M5 15C5.46024 15 5.83333 14.6269 5.83333 14.1667L5.83333 0.83335C5.83333 0.373113 5.46024 1.64509e-05 5 1.64509e-05C4.53976 1.64509e-05 4.16667 0.373113 4.16667 0.83335L4.16667 14.1667C4.16667 14.6269 4.53976 15 5 15Z" fill="var(--fill-0, #141B34)"/>
<path id="Union" d="M5 13.3101C4.87103 13.2324 4.63926 13.0694 4.43755 12.8912C4.03602 12.5364 3.57737 12.0474 3.13421 11.537C2.69464 11.0308 2.28637 10.522 1.98698 10.1384C1.83763 9.947 1.58814 9.61674 1.50434 9.5058C1.2314 9.13527 0.709779 9.05612 0.339217 9.32903C-0.0313646 9.60196 -0.110533 10.1236 0.16239 10.4942L0.164726 10.4973C0.255602 10.6176 0.519092 10.9665 0.673059 11.1638C0.983347 11.5614 1.41086 12.0943 1.8757 12.6297C2.33695 13.161 2.85134 13.7137 3.33399 14.1401C3.57436 14.3525 3.82649 14.5512 4.0755 14.7013C4.30163 14.8377 4.63066 15 4.99997 15C5.36928 15 5.69837 14.8377 5.9245 14.7013C6.17351 14.5512 6.42564 14.3525 6.66602 14.1401C7.14867 13.7137 7.66305 13.161 8.1243 12.6297C8.58914 12.0943 9.01665 11.5614 9.32694 11.1638C9.48091 10.9665 9.74423 10.6178 9.8351 10.4975L9.83761 10.4942C10.1105 10.1236 10.0314 9.60196 9.66078 9.32903C9.29022 9.05612 8.7686 9.13527 8.49566 9.5058C8.41186 9.61674 8.16237 9.94701 8.01302 10.1384C7.71363 10.522 7.30536 11.0308 6.86579 11.537C6.42263 12.0474 5.96398 12.5364 5.56245 12.8912C5.36074 13.0694 5.12897 13.2324 5 13.3101Z" fill="var(--fill-0, #141B34)"/>
</g>
</svg>
