<svg width="21" height="21" viewBox="0 0 21 21" fill="none" xmlns="http://www.w3.org/2000/svg">
<path d="M10.3076 0C12.4979 -1.31223e-05 14.2183 0.000117091 15.5615 0.180664C16.9382 0.365751 18.0305 0.75313 18.8887 1.61133C19.7469 2.46953 20.1342 3.56182 20.3193 4.93848C20.4999 6.28173 20.5 8.00214 20.5 10.1924V10.3076C20.5 12.4979 20.4999 14.2183 20.3193 15.5615C20.1342 16.9382 19.7469 18.0305 18.8887 18.8887C18.0305 19.7469 16.9382 20.1342 15.5615 20.3193C14.2183 20.4999 12.4979 20.5 10.3076 20.5H10.1924C8.00212 20.5 6.28174 20.4999 4.93848 20.3193C3.56182 20.1342 2.46953 19.7469 1.61133 18.8887C0.75313 18.0305 0.365751 16.9382 0.180664 15.5615C0.000117087 14.2183 -1.31223e-05 12.4979 0 10.3076V10.1924C-1.31223e-05 8.00213 0.000117091 6.28174 0.180664 4.93848C0.365751 3.56182 0.75313 2.46953 1.61133 1.61133C2.46953 0.75313 3.56182 0.365751 4.93848 0.180664C6.28174 0.000117087 8.00213 -1.31223e-05 10.1924 0H10.3076ZM14.9258 6.5127C14.5187 6.13955 13.8859 6.16712 13.5127 6.57422L8.71875 11.8047L6.95703 10.043C6.56651 9.65245 5.93349 9.65245 5.54297 10.043C5.15245 10.4335 5.15245 11.0665 5.54297 11.457L8.04297 13.957C8.23578 14.1498 8.49888 14.2559 8.77148 14.25C9.04417 14.2441 9.303 14.1268 9.4873 13.9258L14.9873 7.92578C15.3605 7.51866 15.3329 6.88587 14.9258 6.5127Z" fill="url(#paint0_linear_6750_501)"/>
<defs>
<linearGradient id="paint0_linear_6750_501" x1="8.24805" y1="1.78424" x2="8.75486" y2="13.0883" gradientUnits="userSpaceOnUse">
<stop stop-color="#5C8FF7"/>
<stop offset="1" stop-color="#276AEE"/>
</linearGradient>
</defs>
</svg>
