<svg preserveAspectRatio="none" width="100%" height="100%" overflow="visible" style="display: block;" viewBox="0 0 15 21" fill="none" xmlns="http://www.w3.org/2000/svg">
<g id="elements ">
<path id="Vector 4578 (Stroke)" opacity="0.4" fill-rule="evenodd" clip-rule="evenodd" d="M8 0C8.55228 0 9 0.447715 9 1V2.71C9 3.26228 8.55228 3.71 8 3.71C7.44772 3.71 7 3.26228 7 2.71V1C7 0.447715 7.44772 0 8 0ZM8 17.29C8.55228 17.29 9 17.7377 9 18.29V20C9 20.5523 8.55228 21 8 21C7.44772 21 7 20.5523 7 20V18.29C7 17.7377 7.44772 17.29 8 17.29Z" fill="var(--fill-0, #595F70)"/>
<path id="Vector (Stroke)" fill-rule="evenodd" clip-rule="evenodd" d="M3.83339 4.97645C2.9309 5.56548 2.54167 6.26338 2.54167 6.88889C2.54167 7.29941 2.61882 7.60711 2.74591 7.84574C2.8704 8.07949 3.07161 8.30163 3.40774 8.50193C4.11889 8.9257 5.38525 9.22222 7.5 9.22222C9.71176 9.22222 11.5565 9.49832 12.8747 10.2588C13.554 10.6507 14.101 11.1756 14.4709 11.8515C14.8385 12.5229 15 13.286 15 14.1111C15 15.9379 14.0035 17.2162 12.5654 17.9803C11.1837 18.7144 9.37186 19 7.5 19C5.55549 19 3.7466 18.5305 2.39039 17.7191C1.05453 16.9199 0 15.6757 0 14.1111C0 13.5588 0.447715 13.1111 1 13.1111C1.55228 13.1111 2 13.5588 2 14.1111C2 14.6943 2.40055 15.3946 3.41722 16.0028C4.41355 16.5989 5.85465 17 7.5 17C9.21799 17 10.6561 16.73 11.627 16.2141C12.5414 15.7282 13 15.0621 13 14.1111C13 13.5473 12.8907 13.1299 12.7166 12.8117C12.5448 12.498 12.2793 12.2243 11.8753 11.9912C11.0268 11.5017 9.62157 11.2222 7.5 11.2222C5.28141 11.2222 3.56861 10.926 2.38393 10.22C1.77214 9.85545 1.29627 9.3785 0.980654 8.78589C0.667642 8.19817 0.541667 7.55226 0.541667 6.88889C0.541667 5.36662 1.48625 4.12008 2.74026 3.30161C4.00332 2.47723 5.68897 2 7.5 2C9.31103 2 10.9967 2.47723 12.2597 3.30161C13.5138 4.12008 14.4583 5.36662 14.4583 6.88889C14.4583 7.44117 14.0106 7.88889 13.4583 7.88889C12.906 7.88889 12.4583 7.44117 12.4583 6.88889C12.4583 6.26338 12.0691 5.56548 11.1666 4.97645C10.2732 4.39332 8.97966 4 7.5 4C6.02033 4 4.72681 4.39332 3.83339 4.97645Z" fill="var(--fill-0, #595F70)"/>
</g>
</svg>
