<svg preserveAspectRatio="none" width="100%" height="100%" overflow="visible" style="display: block;" viewBox="0 0 22 22" fill="none" xmlns="http://www.w3.org/2000/svg">
<g id="elements ">
<path id="Vector" d="M13 1.20004C12.3538 1.06886 11.6849 1 11 1C5.47715 1 1 5.47715 1 11C1 16.5228 5.47715 21 11 21C16.5228 21 21 16.5228 21 11C21 10.3151 20.9311 9.64622 20.8 9" stroke="var(--stroke-0, #595F70)" stroke-width="2" stroke-linecap="round"/>
<path id="Vector_2" d="M11 8C9.89543 8 9 8.67157 9 9.5C9 10.3284 9.89543 11 11 11C12.1046 11 13 11.6716 13 12.5C13 13.3284 12.1046 14 11 14M11 8C11.8708 8 12.6116 8.4174 12.8862 9M11 8V7M11 14C10.1292 14 9.38836 13.5826 9.1138 13M11 14V15" stroke="var(--stroke-0, #595F70)" stroke-width="2" stroke-linecap="round"/>
<path id="Vector_3" opacity="0.4" d="M21.2458 2.2101C21.6381 1.82139 21.6411 1.18823 21.2524 0.7959C20.8637 0.403568 20.2305 0.40063 19.8382 0.789338L20.542 1.49972L21.2458 2.2101ZM15.2962 5.28938C14.9038 5.67808 14.9009 6.31124 15.2896 6.70357C15.6783 7.09591 16.3115 7.09884 16.7038 6.71014L16 5.99976L15.2962 5.28938ZM20.0283 1.22678L19.8539 2.21146L19.8539 2.21146L20.0283 1.22678ZM20.7728 1.97146L21.7575 1.79725L21.7575 1.79725L20.7728 1.97146ZM16.5135 0.0039999C15.9613 -0.00355817 15.5075 0.437988 15.4999 0.990221C15.4924 1.54245 15.9339 1.99625 16.4862 2.00381L16.4998 1.00391L16.5135 0.0039999ZM19.9957 5.51347C20.0033 6.0657 20.4571 6.50722 21.0094 6.49962C21.5616 6.49203 22.0031 6.0382 21.9955 5.48597L20.9956 5.49972L19.9957 5.51347ZM20.542 1.49972L19.8382 0.789338L15.2962 5.28938L16 5.99976L16.7038 6.71014L21.2458 2.2101L20.542 1.49972ZM20.0283 1.22678L19.8539 2.21146C19.8563 2.21188 19.8519 2.21138 19.8432 2.20688C19.8344 2.20237 19.824 2.19526 19.8141 2.18533C19.8042 2.1754 19.7971 2.16508 19.7926 2.15632C19.7881 2.1476 19.7876 2.14323 19.7881 2.14567L20.7728 1.97146L21.7575 1.79725C21.6151 0.992551 21.0077 0.384665 20.2027 0.242103L20.0283 1.22678ZM20.0283 1.22678L20.2027 0.242103C19.1642 0.0581878 17.3452 0.0153831 16.5135 0.0039999L16.4998 1.00391L16.4862 2.00381C17.3588 2.01576 19.0057 2.06124 19.8539 2.21146L20.0283 1.22678ZM20.9956 5.49972L21.9955 5.48597C21.9841 4.65426 21.9412 2.83556 21.7575 1.79725L20.7728 1.97146L19.7881 2.14567C19.9382 2.994 19.9837 4.64089 19.9957 5.51347L20.9956 5.49972Z" fill="var(--stroke-0, #595F70)"/>
</g>
</svg>
