<svg preserveAspectRatio="none" width="100%" height="100%" overflow="visible" style="display: block;" viewBox="0 0 22 22" fill="none" xmlns="http://www.w3.org/2000/svg">
<g id="elements ">
<path id="Vector" d="M13 1.20004C12.3538 1.06886 11.6849 1 11 1C5.47715 1 1 5.47715 1 11C1 16.5228 5.47715 21 11 21C16.5228 21 21 16.5228 21 11C21 10.3151 20.9311 9.64622 20.8 9" stroke="var(--stroke-0, #595F70)" stroke-width="2" stroke-linecap="round"/>
<path id="Vector_2" opacity="0.4" d="M21.6994 1.71444C22.0918 1.32574 22.0947 0.692578 21.706 0.300246C21.3173 -0.092086 20.6841 -0.0950239 20.2918 0.293684L20.9956 1.00406L21.6994 1.71444ZM16.9673 5.77704L17.1417 4.79236L17.1417 4.79236L16.9673 5.77704ZM16.2228 5.03236L17.2075 4.85815L17.2075 4.85815L16.2228 5.03236ZM20.4821 6.99982C21.0343 7.00738 21.4881 6.56583 21.4957 6.0136C21.5032 5.46137 21.0617 5.00757 20.5095 5.00001L20.4958 5.99991L20.4821 6.99982ZM16.9999 1.49035C16.9923 0.938117 16.5385 0.496601 15.9862 0.504196C15.434 0.511791 14.9925 0.965621 15.0001 1.51785L16 1.5041L16.9999 1.49035ZM16.4536 5.5041L17.1574 6.21448L21.6994 1.71444L20.9956 1.00406L20.2918 0.293684L15.7498 4.79372L16.4536 5.5041ZM16.9673 5.77704L17.1417 4.79236C17.1392 4.79192 17.1442 4.79252 17.1538 4.79766C17.1635 4.80283 17.1744 4.81083 17.1846 4.82166L16.4536 5.5041L15.7227 6.18655C16.0074 6.4915 16.382 6.68895 16.7929 6.76172L16.9673 5.77704ZM16.4536 5.5041L17.1846 4.82166C17.1935 4.83128 17.1998 4.84092 17.2037 4.84882C17.2076 4.8567 17.208 4.8605 17.2075 4.85815L16.2228 5.03236L15.2381 5.20656C15.3032 5.57414 15.4681 5.91384 15.7227 6.18655L16.4536 5.5041ZM16.9673 5.77704L16.7929 6.76172C17.8314 6.94563 19.6504 6.98844 20.4821 6.99982L20.4958 5.99991L20.5095 5.00001C19.6368 4.98806 17.9899 4.94258 17.1417 4.79236L16.9673 5.77704ZM16 1.5041L15.0001 1.51785C15.0115 2.34956 15.0544 4.16826 15.2381 5.20657L16.2228 5.03236L17.2075 4.85815C17.0575 4.00982 17.0119 2.36293 16.9999 1.49035L16 1.5041Z" fill="var(--stroke-0, #595F70)"/>
<path id="Vector_3" d="M11 8C9.89543 8 9 8.67157 9 9.5C9 10.3284 9.89543 11 11 11C12.1046 11 13 11.6716 13 12.5C13 13.3284 12.1046 14 11 14M11 8C11.8708 8 12.6116 8.4174 12.8862 9M11 8V7M11 14C10.1292 14 9.38836 13.5826 9.1138 13M11 14V15" stroke="var(--stroke-0, #595F70)" stroke-width="2" stroke-linecap="round"/>
</g>
</svg>
