<svg preserveAspectRatio="none" width="100%" height="100%" overflow="visible" style="display: block;" viewBox="0 0 11 7" fill="none" xmlns="http://www.w3.org/2000/svg">
<path id="Mask" fill-rule="evenodd" clip-rule="evenodd" d="M10.4956 0.56175C10.4945 0.51975 10.4822 0.480083 10.4711 0.439833C10.4624 0.406 10.4583 0.371583 10.4437 0.340667C10.4303 0.310333 10.4075 0.285833 10.3877 0.257833C10.3632 0.22225 10.341 0.186667 10.3095 0.1575C10.3043 0.15225 10.302 0.14525 10.2961 0.140583C10.2751 0.1225 10.2495 0.116083 10.2267 0.1015C10.1917 0.07875 10.1573 0.0554167 10.1176 0.04025C10.0785 0.02625 10.04 0.02275 9.99979 0.0169167C9.97179 0.0128333 9.94671 0 9.91696 0H7.00029C6.67771 0 6.41696 0.261333 6.41696 0.583333C6.41696 0.905333 6.67771 1.16667 7.00029 1.16667H8.64879L6.29446 3.913L3.80012 2.41675C3.55337 2.26742 3.23604 2.32225 3.05171 2.54333L0.135039 6.04333C-0.0708776 6.29067 -0.0376277 6.65875 0.209706 6.86467C0.319372 6.95567 0.451206 7 0.583039 7C0.750456 7 0.916122 6.92883 1.03162 6.79L3.62862 3.67383L6.11654 5.16717C6.36096 5.31358 6.67479 5.26225 6.85971 5.04642L9.33362 2.16008V3.5C9.33362 3.822 9.59437 4.08333 9.91696 4.08333C10.2395 4.08333 10.5003 3.822 10.5003 3.5V0.583333C10.5003 0.57575 10.4962 0.569333 10.4956 0.56175" fill="var(--fill-0, #38AA4B)"/>
</svg>
