<svg preserveAspectRatio="none" width="100%" height="100%" overflow="visible" style="display: block;" viewBox="0 0 11 7" fill="none" xmlns="http://www.w3.org/2000/svg">
<path id="Mask" fill-rule="evenodd" clip-rule="evenodd" d="M10.5001 3.5C10.5001 3.178 10.2393 2.91667 9.91677 2.91667C9.59418 2.91667 9.33343 3.178 9.33343 3.5V4.83992L6.85952 1.95358C6.67518 1.73775 6.36135 1.68642 6.11635 1.83342L3.62843 3.32617L1.03202 0.209999C0.825516 -0.0367514 0.458599 -0.0717514 0.209516 0.135332C-0.0372343 0.341249 -0.0710676 0.709332 0.134849 0.956665L3.05152 4.45667C3.23643 4.67775 3.55435 4.732 3.80052 4.58325L6.29427 3.087L8.6486 5.83333H7.0001C6.67752 5.83333 6.41677 6.09466 6.41677 6.41666C6.41677 6.73866 6.67752 7 7.0001 7H9.91677C9.9891 7 10.0608 6.98425 10.1291 6.95683C10.1577 6.94575 10.1798 6.92708 10.2061 6.9125C10.2364 6.89441 10.2691 6.88333 10.2959 6.85942C10.3018 6.85475 10.3041 6.84775 10.3093 6.8425C10.3414 6.81333 10.3636 6.77775 10.3881 6.74217C10.4073 6.71417 10.4301 6.68966 10.4435 6.65933C10.4581 6.62841 10.4628 6.594 10.4709 6.56075C10.482 6.51992 10.4943 6.48025 10.4954 6.43825C10.496 6.43067 10.5001 6.42425 10.5001 6.41666V3.5Z" fill="var(--fill-0, #FF0033)"/>
</svg>
