<svg preserveAspectRatio="none" width="100%" height="100%" overflow="visible" style="display: block;" viewBox="0 0 19 19" fill="none" xmlns="http://www.w3.org/2000/svg">
<g id="elements">
<path id="Ellipse 1335" opacity="0.4" d="M17.6673 9.33268C17.6673 4.73031 13.9364 0.99935 9.33398 0.99935C4.73161 0.99935 1.00065 4.73031 1.00065 9.33268C1.00065 13.9351 4.73161 17.666 9.33398 17.666C13.9364 17.666 17.6673 13.9351 17.6673 9.33268Z" fill="url(#paint0_linear_0_44)"/>
<path id="Ellipse 1334" d="M17.6673 9.33268C17.6673 4.73031 13.9364 0.99935 9.33398 0.99935C4.73161 0.99935 1.00065 4.73031 1.00065 9.33268C1.00065 13.9351 4.73161 17.666 9.33398 17.666C13.9364 17.666 17.6673 13.9351 17.6673 9.33268Z" stroke="url(#paint1_linear_0_44)" stroke-width="1.5"/>
<path id="Vector 6663" d="M6.00065 9.74935L8.08398 11.8327L12.6673 6.83268" stroke="url(#paint2_linear_0_44)" stroke-width="1.5" stroke-linecap="round" stroke-linejoin="round"/>
</g>
<defs>
<linearGradient id="paint0_linear_0_44" x1="7.70638" y1="16.2154" x2="8.11843" y2="7.02514" gradientUnits="userSpaceOnUse">
<stop stop-color="#5C8FF7"/>
<stop offset="1" stop-color="#276AEE"/>
</linearGradient>
<linearGradient id="paint1_linear_0_44" x1="7.70638" y1="16.2154" x2="8.11843" y2="7.02514" gradientUnits="userSpaceOnUse">
<stop stop-color="#5C8FF7"/>
<stop offset="1" stop-color="#276AEE"/>
</linearGradient>
<linearGradient id="paint2_linear_0_44" x1="8.68294" y1="7.26786" x2="8.77573" y2="10.0274" gradientUnits="userSpaceOnUse">
<stop stop-color="#5C8FF7"/>
<stop offset="1" stop-color="#276AEE"/>
</linearGradient>
</defs>
</svg>
