<svg preserveAspectRatio="none" width="100%" height="100%" overflow="visible" style="display: block;" viewBox="0 0 22 22" fill="none" xmlns="http://www.w3.org/2000/svg">
<g id="elements">
<path id="Subtract" d="M10.75 0C16.6871 0 21.5 4.81294 21.5 10.75C21.5 16.6871 16.6871 21.5 10.75 21.5C4.81294 21.5 0 16.6871 0 10.75C0 4.81294 4.81294 0 10.75 0ZM10.5918 6.77734C10.1283 6.56275 9.5999 6.40125 9.04883 6.57129C8.68468 6.68366 8.36102 6.89418 8.10547 7.1748C7.73361 7.58333 7.61114 8.11772 7.55566 8.65137C7.50039 9.1832 7.49998 9.87036 7.5 10.707V10.793C7.49998 11.6296 7.5004 12.3168 7.55566 12.8486C7.61113 13.3823 7.73357 13.9166 8.10547 14.3252C8.36105 14.6059 8.6846 14.8173 9.04883 14.9297C9.59989 15.0997 10.1284 14.9373 10.5918 14.7227C11.0489 14.511 11.6002 14.1699 12.2568 13.7637L12.3389 13.7129C13.0204 13.2913 13.5892 12.9398 14.001 12.6123C14.4247 12.2752 14.7974 11.8765 14.9316 11.3213C15.0222 10.9468 15.0222 10.5532 14.9316 10.1787C14.7973 9.62356 14.4247 9.22478 14.001 8.8877C13.5892 8.56016 13.0205 8.20873 12.3389 7.78711L12.2568 7.73633C11.6002 7.33011 11.0489 6.98903 10.5918 6.77734Z" fill="var(--fill-0, white)"/>
</g>
</svg>
