<svg width="56" height="56" viewBox="0 0 56 56" fill="none" xmlns="http://www.w3.org/2000/svg">
<g clip-path="url(#clip0_3441_35281)">
<rect width="56" height="56" rx="28" fill="black" fill-opacity="0.01"/>
<path opacity="0.4" d="M16.6909 25.7404C16.1735 24.3084 15.9148 23.5924 16.0251 23.1335C16.1458 22.6317 16.5027 22.2405 16.9588 22.11C17.3759 21.9906 18.0247 22.279 19.3223 22.8557C20.47 23.3658 21.0439 23.6209 21.5831 23.6067C22.1768 23.5911 22.7478 23.353 23.2021 22.9318C23.6147 22.5492 23.8915 21.9395 24.445 20.7202L25.6648 18.033C26.6837 15.7883 27.1932 14.666 28 14.666C28.8068 14.666 29.3163 15.7883 30.3352 18.033L31.555 20.7202C32.1085 21.9395 32.3853 22.5492 32.7979 22.9318C33.2522 23.353 33.8232 23.5911 34.4169 23.6067C34.9561 23.6209 35.53 23.3658 36.6777 22.8557C37.9753 22.279 38.6241 21.9906 39.0412 22.11C39.4973 22.2405 39.8542 22.6317 39.9749 23.1335C40.0852 23.5924 39.8265 24.3084 39.3091 25.7403L37.085 31.8956C36.1336 34.5286 35.658 35.8452 34.6625 36.5889C33.667 37.3327 32.3805 37.3327 29.8077 37.3327H26.1923C23.6195 37.3327 22.333 37.3327 21.3375 36.5889C20.342 35.8452 19.8664 34.5286 18.915 31.8956L16.6909 25.7404Z" fill="white"/>
<path d="M16.6909 25.7404C16.1735 24.3084 15.9148 23.5924 16.0251 23.1335C16.1458 22.6317 16.5027 22.2405 16.9588 22.11C17.3759 21.9906 18.0247 22.279 19.3223 22.8557C20.47 23.3658 21.0439 23.6209 21.5831 23.6067C22.1768 23.5911 22.7478 23.353 23.2021 22.9318C23.6147 22.5492 23.8915 21.9395 24.445 20.7202L25.6648 18.033C26.6837 15.7883 27.1932 14.666 28 14.666C28.8068 14.666 29.3163 15.7883 30.3352 18.033L31.555 20.7202C32.1085 21.9395 32.3853 22.5492 32.7979 22.9318C33.2522 23.353 33.8232 23.5911 34.4169 23.6067C34.9561 23.6209 35.53 23.3658 36.6777 22.8557C37.9753 22.279 38.6241 21.9906 39.0412 22.11C39.4973 22.2405 39.8542 22.6317 39.9749 23.1335C40.0852 23.5924 39.8265 24.3084 39.3091 25.7403L37.085 31.8956C36.1336 34.5286 35.658 35.8452 34.6625 36.5889C33.667 37.3327 32.3805 37.3327 29.8077 37.3327H26.1923C23.6195 37.3327 22.333 37.3327 21.3375 36.5889C20.342 35.8452 19.8664 34.5286 18.915 31.8956L16.6909 25.7404Z" stroke="white" stroke-width="2"/>
<path d="M28 30.666H28.012" stroke="white" stroke-width="4" stroke-linecap="round" stroke-linejoin="round"/>
<path d="M21.334 41.334H34.6673" stroke="white" stroke-width="2" stroke-linecap="round"/>
</g>
<defs>
<clipPath id="clip0_3441_35281">
<rect width="56" height="56" rx="28" fill="white"/>
</clipPath>
</defs>
</svg>
