<svg width="88" height="88" viewBox="0 0 88 88" fill="none" xmlns="http://www.w3.org/2000/svg">
<rect width="88" height="88" rx="44" fill="white" fill-opacity="0.3"/>
<path opacity="0.4" d="M24.0315 46.9512C24.1623 53.0823 24.2277 56.1478 26.4899 58.4187C28.7522 60.6896 31.9007 60.7687 38.1977 60.9269C42.0786 61.0244 45.9214 61.0244 49.8024 60.9269C56.0993 60.7687 59.2478 60.6896 61.5101 58.4187C63.7724 56.1478 63.8377 53.0823 63.9685 46.9512C64.0105 44.9799 64.0105 43.0202 63.9685 41.0488C63.8377 34.9177 63.7724 31.8522 61.5101 29.5813C59.2478 27.3105 56.0994 27.2314 49.8024 27.0731C45.9214 26.9756 42.0786 26.9756 38.1976 27.0731C31.9007 27.2313 28.7522 27.3104 26.4899 29.5813C24.2276 31.8522 24.1623 34.9177 24.0315 41.0488C23.9895 43.0201 23.9895 44.9799 24.0315 46.9512Z" fill="url(#paint0_linear_661_1792)"/>
<path d="M34 37L39.884 40.4789C43.3144 42.507 44.6856 42.507 48.116 40.4789L54 37" stroke="url(#paint1_linear_661_1792)" strokeWidth="3.5" strokeLinecap="round" strokeLinejoin="round"/>
<path d="M24.0315 46.9512C24.1623 53.0823 24.2277 56.1478 26.4899 58.4187C28.7522 60.6896 31.9007 60.7687 38.1977 60.9269C42.0786 61.0244 45.9214 61.0244 49.8024 60.9269C56.0993 60.7687 59.2478 60.6896 61.5101 58.4187C63.7724 56.1478 63.8377 53.0823 63.9685 46.9512C64.0105 44.9799 64.0105 43.0202 63.9685 41.0488C63.8377 34.9177 63.7724 31.8522 61.5101 29.5813C59.2478 27.3105 56.0994 27.2314 49.8024 27.0731C45.9214 26.9756 42.0786 26.9756 38.1976 27.0731C31.9007 27.2313 28.7522 27.3104 26.4899 29.5813C24.2276 31.8522 24.1623 34.9177 24.0315 41.0488C23.9895 43.0201 23.9895 44.9799 24.0315 46.9512Z" stroke="url(#paint2_linear_661_1792)" strokeWidth="3.5" strokeLinejoin="round"/>
<defs>
<linearGradient id="paint0_linear_661_1792" x1="40.0938" y1="29.9592" x2="40.8086" y2="48.7178" gradientUnits="userSpaceOnUse">
<stop stop-color="#5C8FF7"/>
<stop offset="1" stop-color="#276AEE"/>
</linearGradient>
<linearGradient id="paint1_linear_661_1792" x1="42.0469" y1="37.4352" x2="42.0778" y2="40.1975" gradientUnits="userSpaceOnUse">
<stop stop-color="#5C8FF7"/>
<stop offset="1" stop-color="#276AEE"/>
</linearGradient>
<linearGradient id="paint2_linear_661_1792" x1="40.0938" y1="29.9592" x2="40.8086" y2="48.7178" gradientUnits="userSpaceOnUse">
<stop stop-color="#5C8FF7"/>
<stop offset="1" stop-color="#276AEE"/>
</linearGradient>
</defs>
</svg>
