<svg width="64" height="64" viewBox="0 0 64 64" fill="none" xmlns="http://www.w3.org/2000/svg">
<g clip-path="url(#clip0_2600_15025)">
<rect width="64" height="64" rx="32" fill="#C4DBFD"/>
<path opacity="0.4" d="M32 38V35.3333" stroke="url(#paint0_linear_2600_15025)" strokeWidth="2.5" strokeLinecap="round"/>
<path d="M21.6906 41.1263C21.9904 43.3533 23.835 45.098 26.0797 45.2012C27.9685 45.288 29.8872 45.3333 32.0002 45.3333C34.1131 45.3333 36.0318 45.288 37.9206 45.2012C40.1653 45.098 42.0099 43.3533 42.3097 41.1263C42.5054 39.6729 42.6668 38.1835 42.6668 36.6667C42.6668 35.1498 42.5054 33.6604 42.3097 32.207C42.0099 29.98 40.1653 28.2353 37.9206 28.1321C36.0318 28.0453 34.1131 28 32.0002 28C29.8872 28 27.9685 28.0453 26.0797 28.1321C23.835 28.2353 21.9904 29.98 21.6906 32.207C21.4949 33.6604 21.3335 35.1498 21.3335 36.6667C21.3335 38.1835 21.4949 39.6729 21.6906 41.1263Z" stroke="url(#paint1_linear_2600_15025)" strokeWidth="2.5"/>
<path opacity="0.4" d="M26 28V24.6667C26 21.3529 28.6863 18.6667 32 18.6667C34.6124 18.6667 36.6667 20.6667 37.3333 22.6667" stroke="url(#paint2_linear_2600_15025)" strokeWidth="2.5" strokeLinecap="round" strokeLinejoin="round"/>
</g>
<defs>
<linearGradient id="paint0_linear_2600_15025" x1="32.4023" y1="35.5654" x2="32.576" y2="37.0181" gradientUnits="userSpaceOnUse">
<stop stop-color="#5C8FF7"/>
<stop offset="1" stop-color="#276AEE"/>
</linearGradient>
<linearGradient id="paint1_linear_2600_15025" x1="29.9168" y1="29.5086" x2="30.2652" y2="39.073" gradientUnits="userSpaceOnUse">
<stop stop-color="#5C8FF7"/>
<stop offset="1" stop-color="#276AEE"/>
</linearGradient>
<linearGradient id="paint2_linear_2600_15025" x1="30.5599" y1="19.479" x2="30.75" y2="24.6289" gradientUnits="userSpaceOnUse">
<stop stop-color="#5C8FF7"/>
<stop offset="1" stop-color="#276AEE"/>
</linearGradient>
<clipPath id="clip0_2600_15025">
<rect width="64" height="64" rx="32" fill="white"/>
</clipPath>
</defs>
</svg>
