<svg width="88" height="88" viewBox="0 0 88 88" fill="none" xmlns="http://www.w3.org/2000/svg">
<rect width="88" height="88" rx="44" fill="white" fill-opacity="0.3"/>
<path opacity="0.4" d="M41.1311 23.6072C41.9633 22.9722 42.8777 22.5 44 22.5C45.1223 22.5 46.0367 22.9722 46.8689 23.6072C47.6483 24.2018 48.5079 25.0615 49.5136 26.0674L49.5844 26.1381C50.6135 27.1672 51.5106 27.5725 52.8958 27.5725C53.069 27.5725 53.2884 27.5663 53.5364 27.5593C54.1659 27.5414 54.9801 27.5184 55.6912 27.5784C56.7344 27.6665 58.0409 27.9468 59.0373 28.9349C60.0414 29.9307 60.3286 31.2426 60.4194 32.2923C60.4815 33.0099 60.4584 33.8301 60.4406 34.4642L60.4406 34.4647C60.4336 34.7119 60.4274 34.9307 60.4274 35.1041C60.4274 36.0058 60.5276 36.5094 60.7014 36.9071C60.8798 37.3156 61.1946 37.7483 61.862 38.4157L61.9327 38.4864C62.9385 39.4921 63.7982 40.3518 64.3928 41.1311C65.0278 41.9632 65.5 42.8776 65.5 44C65.5 45.1223 65.0278 46.0367 64.3928 46.8689C63.7981 47.6484 62.9382 48.5082 61.9321 49.5141L61.8619 49.5843C61.1946 50.2516 60.8798 50.6844 60.7013 51.0928C60.5276 51.4906 60.4274 51.9942 60.4274 52.8958C60.4274 53.0692 60.4336 53.2881 60.4406 53.5352L60.4406 53.5357C60.4584 54.1698 60.4815 54.9901 60.4194 55.7077C60.3286 56.7575 60.0413 58.0694 59.0372 59.0651C58.0408 60.0532 56.7343 60.3334 55.6911 60.4215C54.98 60.4815 54.1659 60.4585 53.5364 60.4406C53.2884 60.4336 53.069 60.4274 52.8959 60.4274C52.0134 60.4274 51.5175 60.5161 51.1271 60.6773C50.7371 60.8383 50.3199 61.1263 49.6915 61.7547C49.5573 61.8889 49.3805 62.0785 49.1764 62.2972C48.7165 62.7901 48.1186 63.431 47.5602 63.9191C46.7126 64.66 45.497 65.5 44 65.5C42.5031 65.5 41.2875 64.66 40.4399 63.9192C39.8814 63.431 39.2835 62.7902 38.8236 62.2972L38.8236 62.2972L38.8235 62.2971C38.6195 62.0785 38.4427 61.8889 38.3085 61.7547C37.6801 61.1263 37.2629 60.8383 36.8729 60.6773C36.4825 60.5161 35.9866 60.4274 35.1041 60.4274C34.931 60.4274 34.7116 60.4336 34.4636 60.4406C33.8341 60.4585 33.0199 60.4815 32.3089 60.4215C31.2657 60.3334 29.9592 60.0532 28.9628 59.0651C27.9587 58.0694 27.6714 56.7575 27.5806 55.7077C27.5185 54.9901 27.5416 54.1698 27.5594 53.5357C27.5664 53.2884 27.5726 53.0694 27.5726 52.8958C27.5726 51.9942 27.4724 51.4906 27.2986 51.0929C27.1202 50.6844 26.8054 50.2517 26.1381 49.5843L26.0679 49.5141C25.0618 48.5082 24.2019 47.6484 23.6072 46.8689C22.9723 46.0367 22.5 45.1223 22.5 44C22.5 42.8777 22.9722 41.9632 23.6072 41.1311C24.2018 40.3517 25.0615 39.4921 26.0673 38.4864L26.138 38.4157C27.1674 37.3863 27.5726 36.489 27.5726 35.1041C27.5726 34.931 27.5663 34.7116 27.5593 34.4636L27.5593 34.4636C27.5415 33.834 27.5184 33.0199 27.5785 32.3088C27.6665 31.2656 27.9468 29.9591 28.9349 28.9627C29.9306 27.9586 31.2426 27.6713 32.2923 27.5805C33.0099 27.5185 33.8302 27.5416 34.4642 27.5594C34.7116 27.5664 34.9306 27.5725 35.1042 27.5725C36.489 27.5725 37.3863 27.1674 38.4156 26.1381L38.4864 26.0673C39.4921 25.0615 40.3518 24.2018 41.1311 23.6072Z" fill="url(#paint0_linear_663_6256)"/>
<path fillRule="evenodd" clipRule="evenodd" d="M51.2864 37.4686C52.1322 38.1791 52.2419 39.4407 51.5314 40.2864L43.1314 50.2864C42.7835 50.7006 42.2827 50.9562 41.7432 50.9949C41.2037 51.0336 40.6715 50.8522 40.268 50.4919L36.668 47.2776C35.844 46.542 35.7725 45.2777 36.5081 44.4537C37.2438 43.6298 38.5081 43.5582 39.3321 44.2939L41.3944 46.1353L48.4686 37.7137C49.1791 36.8679 50.4406 36.7582 51.2864 37.4686Z" fill="url(#paint1_linear_663_6256)"/>
<defs>
<linearGradient id="paint0_linear_663_6256" x1="39.8008" y1="26.2426" x2="40.8639" y2="49.9535" gradientUnits="userSpaceOnUse">
<stop stop-color="#5C8FF7"/>
<stop offset="1" stop-color="#276AEE"/>
</linearGradient>
<linearGradient id="paint1_linear_663_6256" x1="42.4375" y1="38.2185" x2="42.7405" y2="45.942" gradientUnits="userSpaceOnUse">
<stop stop-color="#5C8FF7"/>
<stop offset="1" stop-color="#276AEE"/>
</linearGradient>
</defs>
</svg>
